<svg width="217" height="93" viewBox="0 0 217 93" fill="none" xmlns="http://www.w3.org/2000/svg">
<path d="M14.6758 56.9062C15.2956 56.9062 15.6055 56.5632 15.6055 55.877C10.7135 52.623 6.97266 48.6276 4.38281 43.8906C1.8151 39.1536 0.376302 33.9297 0.0664062 28.2188C1.0625 26.7357 2.54557 25.5957 4.51562 24.7988C6.50781 24.002 8.55534 23.6035 10.6582 23.6035C13.4251 23.6035 15.8047 24.1458 17.7969 25.2305C19.0365 28.5729 20.0547 31.7604 20.8516 34.793C19.7669 39.5742 19.2246 41.9648 19.2246 41.9648C19.1361 42.2969 19.0918 42.6068 19.0918 42.8945C19.0918 43.6471 19.4902 44.0234 20.2871 44.0234C20.5527 43.1823 21.1725 40.6367 22.1465 36.3867C22.39 35.3021 22.7109 33.7969 23.1094 31.8711C23.5299 29.9232 24.0612 27.6322 24.7031 24.998C26.7396 24.0241 29.0638 23.5371 31.6758 23.5371C34.8411 23.5371 37.3646 24.3118 39.2461 25.8613C41.1276 27.3887 42.0684 29.6022 42.0684 32.502C42.0684 36.752 40.873 40.8913 38.4824 44.9199C36.6009 48.1074 34.1107 51.0846 31.0117 53.8516V64.8086C29.1745 65.9375 27.5254 66.679 26.0645 67.0332C24.6035 67.4095 23.0651 67.5977 21.4492 67.5977C18.3945 67.5977 15.9928 67.0221 14.2441 65.8711C12.4954 64.7201 11.6211 63.0046 11.6211 60.7246V54.8809C12.0195 55.2793 12.5286 55.722 13.1484 56.209C13.7682 56.6738 14.2773 56.9062 14.6758 56.9062ZM63.2559 48.5059V54.3164C63.4109 54.4714 63.6654 54.5488 64.0196 54.5488C64.3738 54.5488 64.6283 54.4271 64.7833 54.1836C64.9382 53.9401 65.0157 53.5195 65.0157 52.9219V48.1738C65.0157 46.0488 64.9272 44.6432 64.7501 43.957C64.573 43.2487 64.241 42.8945 63.754 42.8945C63.4441 42.8945 63.1785 43.0052 62.9571 43.2266C63.1563 45.418 63.2559 47.1777 63.2559 48.5059ZM50.838 63.2148C47.2078 59.7174 45.3927 54.9805 45.3927 49.0039C45.3927 43.0052 47.0971 38.2793 50.5059 34.8262C53.9369 31.3509 58.4304 29.6133 63.9864 29.6133C69.5424 29.6133 74.0359 31.4173 77.4669 35.0254C80.8757 38.6335 82.5802 43.3372 82.5802 49.1367C82.5802 54.9141 80.9311 59.5072 77.6329 62.916C74.3568 66.3249 69.8966 68.0293 64.252 68.0293C58.6075 68.0293 54.1361 66.4245 50.838 63.2148ZM105.793 37.1172V50.2656C105.793 53.5638 106.59 55.7109 108.184 56.707C108.206 56.8177 108.217 57.028 108.217 57.3379V57.9355C108.217 61.1895 107.332 63.6354 105.561 65.2734C103.923 66.8229 101.731 67.5977 98.9865 67.5977C96.2638 67.5977 94.0171 66.8229 92.2462 65.2734C90.0106 63.3034 88.8927 60.4258 88.8927 56.6406V35.0586C89.2912 34.7708 89.7228 34.5384 90.1877 34.3613C90.6525 34.1842 91.1395 33.9629 91.6486 33.6973C90.6968 33.2103 89.8335 32.3691 89.0587 31.1738C88.284 29.9564 87.8966 28.5397 87.8966 26.9238C87.8966 24.1348 88.8153 21.8548 90.6525 20.084C92.4897 18.3132 94.7365 17.4277 97.3927 17.4277C100.071 17.4277 102.307 18.3353 104.1 20.1504C105.915 21.9434 106.822 24.2012 106.822 26.9238C106.822 29.1152 106.136 31.041 104.764 32.7012C103.391 34.3392 101.72 35.3685 99.7502 35.7891C99.7502 36.6302 100.071 37.0508 100.713 37.0508C101.842 37.0508 102.993 36.6081 104.166 35.7227C105.052 36.4089 105.594 36.8737 105.793 37.1172ZM132.858 30.4766V31.9707C131.972 33.8079 131.297 35.2467 130.832 36.2871C130.367 37.3053 130.135 38.0026 130.135 38.3789C130.135 39.0208 130.5 39.3418 131.231 39.3418L137.772 24.998C139.299 24.002 141.38 23.5039 144.014 23.5039C146.67 23.5039 148.95 24.2344 150.854 25.6953C152.934 27.3333 153.975 29.569 153.975 32.4023C153.975 34.7708 153.167 37.1061 151.551 39.4082C149.935 41.6882 147.821 43.6693 145.209 45.3516C143.992 44.6654 142.896 44.3223 141.922 44.3223C140.948 44.3223 140.461 44.7982 140.461 45.75C141.479 45.9492 142.398 46.237 143.217 46.6133C144.058 46.9674 145.043 47.6647 146.172 48.7051L155.004 56.8398C154.362 64.0117 150.776 67.5977 144.246 67.5977C141.834 67.5977 139.764 66.9779 138.037 65.7383C136.001 64.2995 134.407 62.1081 133.256 59.1641L130.168 51.4609H130.002C129.272 51.4609 128.906 51.7708 128.906 52.3906C128.906 52.7891 129.216 53.752 129.836 55.2793C130.456 56.9395 131.386 59.153 132.625 61.9199V64.4766C130.301 66.5573 126.925 67.5977 122.498 67.5977C120.108 67.5977 118.06 67.0553 116.356 65.9707C114.43 64.7975 113.467 63.1263 113.467 60.957V26.6914C115.747 24.6107 119.211 23.5703 123.86 23.5703C126.272 23.5703 128.32 24.0794 130.002 25.0977C131.906 26.3151 132.858 28.1081 132.858 30.4766ZM177.918 37.1172V50.2656C177.918 53.5638 178.715 55.7109 180.309 56.707C180.331 56.8177 180.342 57.028 180.342 57.3379V57.9355C180.342 61.1895 179.457 63.6354 177.686 65.2734C176.048 66.8229 173.856 67.5977 171.112 67.5977C168.389 67.5977 166.142 66.8229 164.371 65.2734C162.136 63.3034 161.018 60.4258 161.018 56.6406V35.0586C161.416 34.7708 161.848 34.5384 162.313 34.3613C162.778 34.1842 163.265 33.9629 163.774 33.6973C162.822 33.2103 161.959 32.3691 161.184 31.1738C160.409 29.9564 160.022 28.5397 160.022 26.9238C160.022 24.1348 160.94 21.8548 162.778 20.084C164.615 18.3132 166.862 17.4277 169.518 17.4277C172.196 17.4277 174.432 18.3353 176.225 20.1504C178.04 21.9434 178.948 24.2012 178.948 26.9238C178.948 29.1152 178.261 31.041 176.889 32.7012C175.517 34.3392 173.845 35.3685 171.875 35.7891C171.875 36.6302 172.196 37.0508 172.838 37.0508C173.967 37.0508 175.118 36.6081 176.291 35.7227C177.177 36.4089 177.719 36.8737 177.918 37.1172ZM189.112 46.0156H191.17C192.277 46.0156 192.83 45.6504 192.83 44.9199C192.83 44.8314 192.808 44.6986 192.764 44.5215H185.327C184.84 42.972 184.596 41.2454 184.596 39.3418C184.596 37.416 184.74 35.8555 185.028 34.6602C186.289 33.8633 188.027 32.6458 190.241 31.0078C190.86 29.5026 191.668 27.112 192.664 23.8359C192.797 23.3932 192.952 22.9616 193.129 22.541C194.856 22.0983 196.826 21.877 199.039 21.877C201.253 21.877 203.433 22.1094 205.58 22.5742V30.709H211.325C212.608 32.6569 213.25 34.9479 213.25 37.582C213.25 38.7773 213.084 40.0059 212.752 41.2676C212.42 42.5293 211.944 43.6029 211.325 44.4883H206.577V49.502C206.577 52.3353 207.761 53.752 210.129 53.752H211.557C212.022 55.4342 212.254 56.8952 212.254 58.1348C212.254 61.1895 211.291 63.5358 209.366 65.1738C207.462 66.7897 204.684 67.5977 201.032 67.5977C197.401 67.5977 194.502 66.5905 192.332 64.5762C190.185 62.5397 189.112 59.5514 189.112 55.6113V46.0156Z" fill="#160442"/>
<path d="M103 77C128.509 98.2 156.438 85.8333 167.214 77" stroke="#FE8F01" stroke-width="8" stroke-linecap="round"/>
<path d="M111 22C111 29.732 104.732 36 97 36C89.268 36 83 29.732 83 22C83 14.268 89.268 8 97 8C104.732 8 111 14.268 111 22Z" fill="#FE8F01"/>
<path d="M183 22C183 29.732 176.732 36 169 36C161.268 36 155 29.732 155 22C155 14.268 161.268 8 169 8C176.732 8 183 14.268 183 22Z" fill="#FE8F01"/>
</svg>
